<svg width="134" height="77" viewBox="0 0 134 77" fill="none" xmlns="http://www.w3.org/2000/svg">
<path d="M2.72 32.68V20.28C2.72 17.3467 3.46667 15.2 4.96 13.84C6.48 12.4533 8.49333 11.76 11 11.76C13.5333 11.76 15.56 12.4133 17.08 13.72C18.6 15 19.36 16.6533 19.36 18.68C19.36 19.5867 18.92 20.04 18.04 20.04C17.1867 20.04 16.7467 19.7067 16.72 19.04C16.3467 15.8133 14.4533 14.2 11.04 14.2C7.25333 14.2 5.36 16.2267 5.36 20.28V32.68C5.36 34.7333 5.85333 36.2667 6.84 37.28C7.82667 38.2933 9.22667 38.8 11.04 38.8C12.8533 38.8 14.2533 38.2933 15.24 37.28C16.2267 36.2667 16.72 34.7333 16.72 32.68V27.92H11.36C11.0667 27.92 10.8267 27.8133 10.64 27.6C10.48 27.36 10.4 27.08 10.4 26.76C10.4 26.4667 10.48 26.2133 10.64 26C10.8267 25.76 11.0667 25.64 11.36 25.64H18.4C19.04 25.64 19.36 25.9867 19.36 26.68V32.68C19.36 35.64 18.6 37.8133 17.08 39.2C15.5867 40.56 13.5733 41.24 11.04 41.24C8.50667 41.24 6.48 40.56 4.96 39.2C3.46667 37.8133 2.72 35.64 2.72 32.68ZM24.1606 16C23.814 15.6533 23.6406 15.2533 23.6406 14.8C23.6406 14.3467 23.814 13.96 24.1606 13.64C24.5073 13.32 24.934 13.16 25.4406 13.16C25.9206 13.16 26.3206 13.32 26.6406 13.64C26.9873 13.96 27.1606 14.3467 27.1606 14.8C27.1606 15.2533 26.9873 15.6533 26.6406 16C26.3206 16.32 25.9206 16.48 25.4406 16.48C24.934 16.48 24.5073 16.32 24.1606 16ZM24.1606 39.96V23.04C24.1606 22.7733 24.2806 22.5467 24.5206 22.36C24.7606 22.1733 25.0673 22.08 25.4406 22.08C25.814 22.08 26.1206 22.1733 26.3606 22.36C26.6273 22.5467 26.7606 22.7733 26.7606 23.04V39.96C26.7606 40.2267 26.6273 40.4667 26.3606 40.68C26.094 40.8933 25.7873 41 25.4406 41C25.094 41 24.7873 40.8933 24.5206 40.68C24.2806 40.4667 24.1606 40.2267 24.1606 39.96ZM31.7369 35.12V14.04C31.7369 13.7733 31.8702 13.5467 32.1369 13.36C32.4035 13.1733 32.6969 13.08 33.0169 13.08C33.3635 13.08 33.6702 13.1733 33.9369 13.36C34.2035 13.5467 34.3369 13.7733 34.3369 14.04V22.08H39.4969C39.7635 22.08 39.9769 22.1867 40.1369 22.4C40.3235 22.6133 40.4169 22.8667 40.4169 23.16C40.4169 23.4533 40.3235 23.7067 40.1369 23.92C39.9769 24.1333 39.7635 24.24 39.4969 24.24H34.3369V35.12C34.3369 36.4267 34.6035 37.3467 35.1369 37.88C35.6969 38.3867 36.6702 38.64 38.0569 38.64H39.1769C39.5235 38.64 39.8035 38.76 40.0169 39C40.2569 39.2133 40.3769 39.48 40.3769 39.8C40.3769 40.12 40.2569 40.4 40.0169 40.64C39.8035 40.88 39.5235 41 39.1769 41H38.0569C33.8435 41 31.7369 39.04 31.7369 35.12ZM52.2197 39.96V13.04C52.2197 12.1867 52.6597 11.76 53.5397 11.76C54.313 11.76 55.0197 12.3733 55.6597 13.6L62.5397 26.88L69.4197 13.6C70.0597 12.3733 70.7664 11.76 71.5397 11.76C72.4197 11.76 72.8597 12.1867 72.8597 13.04V39.96C72.8597 40.28 72.7264 40.5333 72.4597 40.72C72.2197 40.9067 71.913 41 71.5397 41C71.193 41 70.8864 40.9067 70.6197 40.72C70.353 40.5333 70.2197 40.28 70.2197 39.96V17.48L63.5797 30.04C63.2864 30.6 62.9264 30.88 62.4997 30.88C62.0997 30.88 61.753 30.6 61.4597 30.04L54.8597 17.36V39.96C54.8597 40.28 54.7264 40.5333 54.4597 40.72C54.193 40.9067 53.8864 41 53.5397 41C53.1664 41 52.8464 40.9067 52.5797 40.72C52.3397 40.5333 52.2197 40.28 52.2197 39.96ZM77.5031 33.68V29.2C77.5031 27.2 78.2498 25.48 79.7431 24.04C81.2365 22.5733 83.0365 21.84 85.1431 21.84C87.1698 21.84 88.9165 22.5333 90.3831 23.92C91.8765 25.3067 92.6231 27.04 92.6231 29.12C92.6231 29.8667 92.5298 30.4667 92.3431 30.92C92.1831 31.3733 91.9031 31.6933 91.5031 31.88C91.1298 32.0667 90.7831 32.1867 90.4631 32.24C90.1431 32.2933 89.7031 32.32 89.1431 32.32H80.1031V33.8C80.1031 35.3733 80.6631 36.64 81.7831 37.6C82.9298 38.5333 84.3965 39 86.1831 39C87.0898 39 87.8765 38.8667 88.5431 38.6C89.2365 38.3333 89.7565 38.0667 90.1031 37.8C90.4765 37.5333 90.7698 37.4 90.9831 37.4C91.2765 37.4 91.5298 37.5467 91.7431 37.84C91.9831 38.1067 92.1031 38.3733 92.1031 38.64C92.1031 39.2 91.5298 39.7867 90.3831 40.4C89.2365 40.9867 87.8098 41.28 86.1031 41.28C83.5698 41.28 81.5031 40.5867 79.9031 39.2C78.3031 37.7867 77.5031 35.9467 77.5031 33.68ZM80.1031 30.4H88.1031C88.9031 30.4 89.4365 30.32 89.7031 30.16C89.9698 29.9733 90.1031 29.6 90.1031 29.04C90.1031 27.7067 89.6231 26.5333 88.6631 25.52C87.7298 24.5067 86.5431 24 85.1031 24C83.7165 24 82.5298 24.48 81.5431 25.44C80.5831 26.4 80.1031 27.5467 80.1031 28.88V30.4ZM95.8234 33.68V29.2C95.8234 27.2 96.5701 25.48 98.0634 24.04C99.5568 22.5733 101.357 21.84 103.463 21.84C105.49 21.84 107.237 22.5333 108.703 23.92C110.197 25.3067 110.943 27.04 110.943 29.12C110.943 29.8667 110.85 30.4667 110.663 30.92C110.503 31.3733 110.223 31.6933 109.823 31.88C109.45 32.0667 109.103 32.1867 108.783 32.24C108.463 32.2933 108.023 32.32 107.463 32.32H98.4234V33.8C98.4234 35.3733 98.9834 36.64 100.103 37.6C101.25 38.5333 102.717 39 104.503 39C105.41 39 106.197 38.8667 106.863 38.6C107.557 38.3333 108.077 38.0667 108.423 37.8C108.797 37.5333 109.09 37.4 109.303 37.4C109.597 37.4 109.85 37.5467 110.063 37.84C110.303 38.1067 110.423 38.3733 110.423 38.64C110.423 39.2 109.85 39.7867 108.703 40.4C107.557 40.9867 106.13 41.28 104.423 41.28C101.89 41.28 99.8234 40.5867 98.2234 39.2C96.6234 37.7867 95.8234 35.9467 95.8234 33.68ZM98.4234 30.4H106.423C107.223 30.4 107.757 30.32 108.023 30.16C108.29 29.9733 108.423 29.6 108.423 29.04C108.423 27.7067 107.943 26.5333 106.983 25.52C106.05 24.5067 104.863 24 103.423 24C102.037 24 100.85 24.48 99.8634 25.44C98.9034 26.4 98.4234 27.5467 98.4234 28.88V30.4ZM114.784 35.12V14.04C114.784 13.7733 114.917 13.5467 115.184 13.36C115.45 13.1733 115.744 13.08 116.064 13.08C116.41 13.08 116.717 13.1733 116.984 13.36C117.25 13.5467 117.384 13.7733 117.384 14.04V22.08H122.544C122.81 22.08 123.024 22.1867 123.184 22.4C123.37 22.6133 123.464 22.8667 123.464 23.16C123.464 23.4533 123.37 23.7067 123.184 23.92C123.024 24.1333 122.81 24.24 122.544 24.24H117.384V35.12C117.384 36.4267 117.65 37.3467 118.184 37.88C118.744 38.3867 119.717 38.64 121.104 38.64H122.224C122.57 38.64 122.85 38.76 123.064 39C123.304 39.2133 123.424 39.48 123.424 39.8C123.424 40.12 123.304 40.4 123.064 40.64C122.85 40.88 122.57 41 122.224 41H121.104C116.89 41 114.784 39.04 114.784 35.12Z" fill="#00B1E9"/>
<path d="M3 55L124 55" stroke="#00B1E9" stroke-width="2" stroke-linecap="round" stroke-linejoin="round"/>
<path d="M2.99993 55C43.9999 55 44.4999 72 82.9999 72" stroke="#00B1E9" stroke-width="2" stroke-linecap="round" stroke-linejoin="round"/>
<circle cx="87" cy="72" r="4" stroke="#00B1E9" stroke-width="2"/>
<circle cx="129" cy="55" r="4" stroke="#00B1E9" stroke-width="2"/>
</svg>
